<?xml version="1.0" encoding="UTF-8" standalone="no"?>
<!-- Created with Inkscape (http://www.inkscape.org/) -->

<svg
   width="47.036278mm"
   height="21.763638mm"
   viewBox="0 0 47.036278 21.763638"
   version="1.1"
   id="svg5"
   inkscape:version="1.1.2 (b8e25be833, 2022-02-05)"
   sodipodi:docname="logo.svg"
   xmlns:inkscape="http://www.inkscape.org/namespaces/inkscape"
   xmlns:sodipodi="http://sodipodi.sourceforge.net/DTD/sodipodi-0.dtd"
   xmlns="http://www.w3.org/2000/svg"
   xmlns:svg="http://www.w3.org/2000/svg">
  <sodipodi:namedview
     id="namedview7"
     pagecolor="#ffffff"
     bordercolor="#666666"
     borderopacity="1.0"
     inkscape:pageshadow="2"
     inkscape:pageopacity="0.0"
     inkscape:pagecheckerboard="0"
     inkscape:document-units="mm"
     showgrid="false"
     fit-margin-top="0"
     fit-margin-left="0"
     fit-margin-right="0"
     fit-margin-bottom="0"
     units="mm"
     inkscape:zoom="2.7438272"
     inkscape:cx="63.779527"
     inkscape:cy="76.170978"
     inkscape:window-width="1920"
     inkscape:window-height="974"
     inkscape:window-x="-11"
     inkscape:window-y="-11"
     inkscape:window-maximized="1"
     inkscape:current-layer="layer1" />
  <defs
     id="defs2">
    <rect
       x="83.824524"
       y="95.851517"
       width="36.445442"
       height="60.134983"
       id="rect10730" />
    <rect
       x="-181.86276"
       y="-52.481441"
       width="182.4715"
       height="45.329033"
       id="rect6374" />
    <rect
       x="-149.42632"
       y="18.951632"
       width="123.55006"
       height="69.97525"
       id="rect2812" />
    <rect
       x="-307.41733"
       y="374.11249"
       width="69.79303"
       height="51.205849"
       id="rect4237" />
  </defs>
  <g
     inkscape:label="Layer 1"
     inkscape:groupmode="layer"
     id="layer1"
     transform="translate(85.668594,-76.629059)">
    <rect
       style="fill:#ffffff;fill-opacity:1;stroke:#001efa;stroke-width:0.264583;stroke-opacity:1"
       id="rect20055"
       width="0"
       height="0"
       x="-56.507126"
       y="94.114273" />
    <path
       id="rect33767"
       style="fill:#1e1926;stroke:#001efa;stroke-width:0.255891"
       d="m -85.540649,76.757004 h 46.780387 V 98.26475 h -46.780387 z" />
    <path
       id="rect20614"
       style="fill:#ffcd00;stroke:#001efa;stroke-width:0.243195"
       d="m -83.703598,78.387474 h 43.106453 v 18.246815 h -43.106453 z" />
    <text
       xml:space="preserve"
       transform="matrix(0.26458333,0,0,0.26458333,-85.668595,76.629058)"
       id="text2810"
       style="font-style:normal;font-weight:normal;font-size:40px;line-height:1.25;font-family:sans-serif;white-space:pre;shape-inside:url(#rect2812);fill:#000000;fill-opacity:1;stroke:none"><tspan
         x="-149.42578"
         y="125.42095"
         id="tspan16072"><tspan
           dx="0 18.183594 33.710938 31.484375 27.34375 16.835938 25.292969"
           id="tspan16070">JMOVIES</tspan></tspan></text>
    <g
       aria-label="JMOVIES"
       transform="matrix(0.27338725,0,0,0.61233188,-33.730011,106.38728)"
       id="text6372"
       style="font-size:40px;line-height:1.25;font-family:'Exotc350 Bd BT';-inkscape-font-specification:'Exotc350 Bd BT, Normal';white-space:pre;shape-inside:url(#rect6374);stroke:#001efa">
      <path
         d="m -182.17578,-20.488281 h 0.76172 q 2.67578,0 3.61328,-1.132813 0.9375,-1.152343 0.9375,-5.273437 v -16.308594 h 7.32422 v 17.441406 q 0,4.6875 -2.32422,6.71875 -2.32422,2.03125 -7.71484,2.03125 -1.03516,0 -1.58204,-0.01953 -0.54687,-0.01953 -1.01562,-0.05859 z"
         id="path16014" />
      <path
         d="m -163.34766,-17.089844 v -26.113281 h 6.83594 l 5.87891,14.082031 5.83984,-14.082031 h 7.16797 v 26.113281 h -7.28516 v -17.167968 l -7.05078,17.167968 h -0.70312 l -6.89453,-16.40625 v 16.40625 z"
         id="path16016" />
      <path
         d="m -125.20313,-30.097656 q 0,4.902344 1.60157,7.65625 1.60156,2.753906 4.39453,2.753906 2.8125,0 4.41406,-2.753906 1.60156,-2.753906 1.60156,-7.65625 0,-4.902344 -1.60156,-7.636719 -1.58203,-2.753906 -4.41406,-2.753906 -2.8125,0 -4.41406,2.753906 -1.58204,2.734375 -1.58204,7.636719 z m 5.9961,-13.632813 q 2.71484,0 5.19531,0.898438 2.5,0.878906 4.29688,2.5 2.16796,1.933594 3.28125,4.550781 1.11328,2.597656 1.11328,5.722656 0,3.105469 -1.13282,5.703125 -1.11328,2.578125 -3.26171,4.511719 -1.81641,1.621094 -4.29688,2.519531 -2.46094,0.878907 -5.19531,0.878907 -2.71485,0 -5.19531,-0.898438 -2.48047,-0.898437 -4.27735,-2.5 -2.1875,-1.972656 -3.30078,-4.570312 -1.09375,-2.597657 -1.09375,-5.722657 0,-3.066406 1.11328,-5.683593 1.13282,-2.617188 3.28125,-4.550782 1.77735,-1.601562 4.25781,-2.480468 2.48047,-0.878907 5.21485,-0.878907 z"
         id="path16018" />
      <path
         d="m -93.640625,-16.445312 -10.761715,-26.757813 h 7.617184 l 5.3125,14.121094 5.488281,-14.121094 h 3.4375 z"
         id="path16020" />
      <path
         d="m -72.585937,-17.089844 h -7.324219 v -26.113281 h 7.324219 z"
         id="path16022" />
      <path
         d="m -66.179687,-17.089844 v -26.113281 h 16.347656 v 3.515625 h -9.023438 v 7.597656 h 8.554688 v 3.515625 h -8.554688 v 7.96875 h 9.511719 v 3.515625 z"
         id="path16024" />
      <path
         d="m -41.824219,-23.730469 q 0.800782,1.894532 1.992188,2.910157 1.210937,1.015625 2.65625,1.015625 1.484375,0 2.441406,-0.878907 0.957031,-0.878906 0.957031,-2.207031 0,-1.074219 -0.722656,-1.933594 -0.722656,-0.878906 -2.363281,-1.777343 l -1.035156,-0.566407 q -3.554688,-1.894531 -4.277344,-2.519531 -1.484375,-1.289062 -2.109375,-2.558594 -0.605469,-1.289062 -0.605469,-3.007812 0,-3.769531 2.519531,-6.152344 2.539063,-2.402344 6.601563,-2.402344 2.851562,0 5,1.308594 2.148437,1.289063 3.359375,3.730469 l -2.96875,2.070312 q -0.78125,-1.875 -1.992188,-2.8125 -1.191406,-0.9375 -2.851562,-0.9375 -1.386719,0 -2.304688,0.859375 -0.898437,0.859375 -0.898437,2.148438 0,1.09375 0.742187,1.914062 0.761719,0.820313 2.910157,1.914063 l 0.488281,0.253906 q 4.003906,1.992188 4.824219,2.675781 1.445312,1.191407 2.070312,2.519532 0.644531,1.308593 0.644531,3.066406 0,3.847656 -2.695312,6.269531 -2.675781,2.421875 -6.972656,2.421875 -3.066407,0 -5.429688,-1.347656 -2.34375,-1.347656 -3.574219,-3.808594 z"
         id="path16026" />
    </g>
    <text
       xml:space="preserve"
       transform="matrix(0.26458333,0,0,0.26458333,-85.668595,76.629058)"
       id="text10728"
       style="font-style:normal;font-weight:normal;font-size:40px;line-height:1.25;font-family:sans-serif;white-space:pre;shape-inside:url(#rect10730);fill:#000000;fill-opacity:1;stroke:none" />
  </g>
</svg>
